<mxfile host="app.diagrams.net" modified="2024-02-27T07:55:47.265Z" agent="Mozilla/5.0 (Windows NT 10.0; Win64; x64) AppleWebKit/537.36 (KHTML, like Gecko) Chrome/122.0.0.0 Safari/537.36" etag="FDd4VsYLA9RPZh43ZtrM" version="23.1.5" type="device">
  <diagram name="Страница — 1" id="cHAt5ngkdqTrlnWe-Der">
    <mxGraphModel dx="1221" dy="703" grid="1" gridSize="10" guides="1" tooltips="1" connect="1" arrows="1" fold="1" page="1" pageScale="1" pageWidth="1169" pageHeight="827" math="0" shadow="0">
      <root>
        <mxCell id="0" />
        <mxCell id="1" parent="0" />
        <mxCell id="ArWsetm-JMK3BT-e9hQn-11" style="edgeStyle=none;curved=1;rounded=0;orthogonalLoop=1;jettySize=auto;html=1;exitX=1;exitY=0.3333333333333333;exitDx=0;exitDy=0;exitPerimeter=0;fontSize=12;startSize=8;endSize=8;" edge="1" parent="1" source="ArWsetm-JMK3BT-e9hQn-2" target="ArWsetm-JMK3BT-e9hQn-4">
          <mxGeometry relative="1" as="geometry" />
        </mxCell>
        <mxCell id="ArWsetm-JMK3BT-e9hQn-2" value="Пользователь" style="shape=umlActor;verticalLabelPosition=bottom;verticalAlign=top;html=1;" vertex="1" parent="1">
          <mxGeometry x="130" y="230" width="30" height="60" as="geometry" />
        </mxCell>
        <mxCell id="ArWsetm-JMK3BT-e9hQn-10" style="edgeStyle=none;curved=1;rounded=0;orthogonalLoop=1;jettySize=auto;html=1;exitX=0;exitY=0.3333333333333333;exitDx=0;exitDy=0;exitPerimeter=0;fontSize=12;startSize=8;endSize=8;" edge="1" parent="1" source="ArWsetm-JMK3BT-e9hQn-3" target="ArWsetm-JMK3BT-e9hQn-7">
          <mxGeometry relative="1" as="geometry" />
        </mxCell>
        <mxCell id="ArWsetm-JMK3BT-e9hQn-13" style="edgeStyle=none;curved=1;rounded=0;orthogonalLoop=1;jettySize=auto;html=1;exitX=1;exitY=0.3333333333333333;exitDx=0;exitDy=0;exitPerimeter=0;fontSize=12;startSize=8;endSize=8;" edge="1" parent="1" source="ArWsetm-JMK3BT-e9hQn-3" target="ArWsetm-JMK3BT-e9hQn-12">
          <mxGeometry relative="1" as="geometry" />
        </mxCell>
        <mxCell id="ArWsetm-JMK3BT-e9hQn-17" style="edgeStyle=none;curved=1;rounded=0;orthogonalLoop=1;jettySize=auto;html=1;exitX=1;exitY=0.3333333333333333;exitDx=0;exitDy=0;exitPerimeter=0;fontSize=12;startSize=8;endSize=8;" edge="1" parent="1" source="ArWsetm-JMK3BT-e9hQn-3" target="ArWsetm-JMK3BT-e9hQn-16">
          <mxGeometry relative="1" as="geometry" />
        </mxCell>
        <mxCell id="ArWsetm-JMK3BT-e9hQn-19" style="edgeStyle=none;curved=1;rounded=0;orthogonalLoop=1;jettySize=auto;html=1;exitX=1;exitY=0.3333333333333333;exitDx=0;exitDy=0;exitPerimeter=0;fontSize=12;startSize=8;endSize=8;" edge="1" parent="1" source="ArWsetm-JMK3BT-e9hQn-3" target="ArWsetm-JMK3BT-e9hQn-18">
          <mxGeometry relative="1" as="geometry" />
        </mxCell>
        <mxCell id="ArWsetm-JMK3BT-e9hQn-3" value="Админ" style="shape=umlActor;verticalLabelPosition=bottom;verticalAlign=top;html=1;" vertex="1" parent="1">
          <mxGeometry x="430" y="370" width="30" height="60" as="geometry" />
        </mxCell>
        <mxCell id="ArWsetm-JMK3BT-e9hQn-6" value="" style="edgeStyle=none;curved=1;rounded=0;orthogonalLoop=1;jettySize=auto;html=1;fontSize=12;startSize=8;endSize=8;" edge="1" parent="1" source="ArWsetm-JMK3BT-e9hQn-4" target="ArWsetm-JMK3BT-e9hQn-5">
          <mxGeometry relative="1" as="geometry" />
        </mxCell>
        <mxCell id="ArWsetm-JMK3BT-e9hQn-14" value="&quot;uses&quot;" style="edgeLabel;html=1;align=center;verticalAlign=middle;resizable=0;points=[];fontSize=12;" vertex="1" connectable="0" parent="ArWsetm-JMK3BT-e9hQn-6">
          <mxGeometry x="-0.2467" relative="1" as="geometry">
            <mxPoint as="offset" />
          </mxGeometry>
        </mxCell>
        <mxCell id="ArWsetm-JMK3BT-e9hQn-4" value="Заказ книги" style="ellipse;whiteSpace=wrap;html=1;fontSize=11;" vertex="1" parent="1">
          <mxGeometry x="210" y="160" width="80" height="50" as="geometry" />
        </mxCell>
        <mxCell id="ArWsetm-JMK3BT-e9hQn-92" value="" style="edgeStyle=none;curved=1;rounded=0;orthogonalLoop=1;jettySize=auto;html=1;fontSize=12;startSize=8;endSize=8;" edge="1" parent="1" source="ArWsetm-JMK3BT-e9hQn-5" target="ArWsetm-JMK3BT-e9hQn-7">
          <mxGeometry relative="1" as="geometry" />
        </mxCell>
        <mxCell id="ArWsetm-JMK3BT-e9hQn-5" value="Определение наличия книг" style="ellipse;whiteSpace=wrap;html=1;fontSize=11;" vertex="1" parent="1">
          <mxGeometry x="220" y="280" width="80" height="50" as="geometry" />
        </mxCell>
        <mxCell id="ArWsetm-JMK3BT-e9hQn-21" value="" style="edgeStyle=none;curved=1;rounded=0;orthogonalLoop=1;jettySize=auto;html=1;fontSize=12;startSize=8;endSize=8;" edge="1" parent="1" source="ArWsetm-JMK3BT-e9hQn-7" target="ArWsetm-JMK3BT-e9hQn-20">
          <mxGeometry relative="1" as="geometry" />
        </mxCell>
        <mxCell id="ArWsetm-JMK3BT-e9hQn-22" value="&quot;includes&quot;" style="edgeLabel;html=1;align=center;verticalAlign=middle;resizable=0;points=[];fontSize=12;" vertex="1" connectable="0" parent="ArWsetm-JMK3BT-e9hQn-21">
          <mxGeometry x="-0.1053" y="-4" relative="1" as="geometry">
            <mxPoint y="1" as="offset" />
          </mxGeometry>
        </mxCell>
        <mxCell id="ArWsetm-JMK3BT-e9hQn-7" value="Оформление заказа" style="ellipse;whiteSpace=wrap;html=1;fontSize=11;" vertex="1" parent="1">
          <mxGeometry x="270" y="380" width="80" height="50" as="geometry" />
        </mxCell>
        <mxCell id="ArWsetm-JMK3BT-e9hQn-23" value="" style="edgeStyle=none;curved=1;rounded=0;orthogonalLoop=1;jettySize=auto;html=1;fontSize=12;startSize=8;endSize=8;" edge="1" parent="1" source="ArWsetm-JMK3BT-e9hQn-12" target="ArWsetm-JMK3BT-e9hQn-20">
          <mxGeometry relative="1" as="geometry" />
        </mxCell>
        <mxCell id="ArWsetm-JMK3BT-e9hQn-24" value="&quot;includes&quot;" style="edgeLabel;html=1;align=center;verticalAlign=middle;resizable=0;points=[];fontSize=12;" vertex="1" connectable="0" parent="ArWsetm-JMK3BT-e9hQn-23">
          <mxGeometry x="0.019" relative="1" as="geometry">
            <mxPoint as="offset" />
          </mxGeometry>
        </mxCell>
        <mxCell id="ArWsetm-JMK3BT-e9hQn-12" value="Ввод данных книг" style="ellipse;whiteSpace=wrap;html=1;fontSize=11;" vertex="1" parent="1">
          <mxGeometry x="480" y="270" width="80" height="50" as="geometry" />
        </mxCell>
        <mxCell id="ArWsetm-JMK3BT-e9hQn-16" value="Ввод данных о выдачах" style="ellipse;whiteSpace=wrap;html=1;fontSize=11;" vertex="1" parent="1">
          <mxGeometry x="560" y="320" width="80" height="50" as="geometry" />
        </mxCell>
        <mxCell id="ArWsetm-JMK3BT-e9hQn-18" value="Ввод данных о пользователях" style="ellipse;whiteSpace=wrap;html=1;fontSize=11;" vertex="1" parent="1">
          <mxGeometry x="560" y="389" width="80" height="50" as="geometry" />
        </mxCell>
        <mxCell id="ArWsetm-JMK3BT-e9hQn-20" value="Изменение остатка книг" style="ellipse;whiteSpace=wrap;html=1;fontSize=11;" vertex="1" parent="1">
          <mxGeometry x="360" y="200" width="80" height="50" as="geometry" />
        </mxCell>
        <mxCell id="ArWsetm-JMK3BT-e9hQn-26" value="Сценарий варианта использования" style="shape=table;startSize=30;container=1;collapsible=1;childLayout=tableLayout;fixedRows=1;rowLines=0;fontStyle=1;align=center;resizeLast=1;html=1;whiteSpace=wrap;" vertex="1" parent="1">
          <mxGeometry x="720" y="40" width="400" height="300" as="geometry" />
        </mxCell>
        <mxCell id="ArWsetm-JMK3BT-e9hQn-27" value="" style="shape=tableRow;horizontal=0;startSize=0;swimlaneHead=0;swimlaneBody=0;fillColor=none;collapsible=0;dropTarget=0;points=[[0,0.5],[1,0.5]];portConstraint=eastwest;top=0;left=0;right=0;bottom=0;html=1;" vertex="1" parent="ArWsetm-JMK3BT-e9hQn-26">
          <mxGeometry y="30" width="400" height="30" as="geometry" />
        </mxCell>
        <mxCell id="ArWsetm-JMK3BT-e9hQn-28" value="Вариант использования" style="shape=partialRectangle;connectable=0;fillColor=none;top=0;left=0;bottom=0;right=0;fontStyle=1;overflow=hidden;html=1;whiteSpace=wrap;" vertex="1" parent="ArWsetm-JMK3BT-e9hQn-27">
          <mxGeometry width="120" height="30" as="geometry">
            <mxRectangle width="120" height="30" as="alternateBounds" />
          </mxGeometry>
        </mxCell>
        <mxCell id="ArWsetm-JMK3BT-e9hQn-29" value="Бронирование книги" style="shape=partialRectangle;connectable=0;fillColor=none;top=0;left=0;bottom=0;right=0;align=left;spacingLeft=6;fontStyle=5;overflow=hidden;html=1;whiteSpace=wrap;" vertex="1" parent="ArWsetm-JMK3BT-e9hQn-27">
          <mxGeometry x="120" width="280" height="30" as="geometry">
            <mxRectangle width="280" height="30" as="alternateBounds" />
          </mxGeometry>
        </mxCell>
        <mxCell id="ArWsetm-JMK3BT-e9hQn-33" value="" style="shape=tableRow;horizontal=0;startSize=0;swimlaneHead=0;swimlaneBody=0;fillColor=none;collapsible=0;dropTarget=0;points=[[0,0.5],[1,0.5]];portConstraint=eastwest;top=0;left=0;right=0;bottom=0;html=1;" vertex="1" parent="ArWsetm-JMK3BT-e9hQn-26">
          <mxGeometry y="60" width="400" height="30" as="geometry" />
        </mxCell>
        <mxCell id="ArWsetm-JMK3BT-e9hQn-34" value="Актёры" style="shape=partialRectangle;connectable=0;fillColor=none;top=0;left=0;bottom=0;right=0;editable=1;overflow=hidden;html=1;whiteSpace=wrap;" vertex="1" parent="ArWsetm-JMK3BT-e9hQn-33">
          <mxGeometry width="120" height="30" as="geometry">
            <mxRectangle width="120" height="30" as="alternateBounds" />
          </mxGeometry>
        </mxCell>
        <mxCell id="ArWsetm-JMK3BT-e9hQn-35" value="Пользователь, Админ" style="shape=partialRectangle;connectable=0;fillColor=none;top=0;left=0;bottom=0;right=0;align=left;spacingLeft=6;overflow=hidden;html=1;whiteSpace=wrap;" vertex="1" parent="ArWsetm-JMK3BT-e9hQn-33">
          <mxGeometry x="120" width="280" height="30" as="geometry">
            <mxRectangle width="280" height="30" as="alternateBounds" />
          </mxGeometry>
        </mxCell>
        <mxCell id="ArWsetm-JMK3BT-e9hQn-36" value="" style="shape=tableRow;horizontal=0;startSize=0;swimlaneHead=0;swimlaneBody=0;fillColor=none;collapsible=0;dropTarget=0;points=[[0,0.5],[1,0.5]];portConstraint=eastwest;top=0;left=0;right=0;bottom=0;html=1;" vertex="1" parent="ArWsetm-JMK3BT-e9hQn-26">
          <mxGeometry y="90" width="400" height="100" as="geometry" />
        </mxCell>
        <mxCell id="ArWsetm-JMK3BT-e9hQn-37" value="Краткое описание" style="shape=partialRectangle;connectable=0;fillColor=none;top=0;left=0;bottom=0;right=0;editable=1;overflow=hidden;html=1;whiteSpace=wrap;" vertex="1" parent="ArWsetm-JMK3BT-e9hQn-36">
          <mxGeometry width="120" height="100" as="geometry">
            <mxRectangle width="120" height="100" as="alternateBounds" />
          </mxGeometry>
        </mxCell>
        <mxCell id="ArWsetm-JMK3BT-e9hQn-38" value="Покупатель заказывает книгу. Система определяет наличие книги. Админ подтверждает заказ книги." style="shape=partialRectangle;connectable=0;fillColor=none;top=0;left=0;bottom=0;right=0;align=left;spacingLeft=6;overflow=hidden;html=1;whiteSpace=wrap;" vertex="1" parent="ArWsetm-JMK3BT-e9hQn-36">
          <mxGeometry x="120" width="280" height="100" as="geometry">
            <mxRectangle width="280" height="100" as="alternateBounds" />
          </mxGeometry>
        </mxCell>
        <mxCell id="ArWsetm-JMK3BT-e9hQn-89" value="" style="shape=tableRow;horizontal=0;startSize=0;swimlaneHead=0;swimlaneBody=0;fillColor=none;collapsible=0;dropTarget=0;points=[[0,0.5],[1,0.5]];portConstraint=eastwest;top=0;left=0;right=0;bottom=0;html=1;" vertex="1" parent="ArWsetm-JMK3BT-e9hQn-26">
          <mxGeometry y="190" width="400" height="30" as="geometry" />
        </mxCell>
        <mxCell id="ArWsetm-JMK3BT-e9hQn-90" value="Цель" style="shape=partialRectangle;connectable=0;fillColor=none;top=0;left=0;bottom=0;right=0;editable=1;overflow=hidden;html=1;whiteSpace=wrap;" vertex="1" parent="ArWsetm-JMK3BT-e9hQn-89">
          <mxGeometry width="120" height="30" as="geometry">
            <mxRectangle width="120" height="30" as="alternateBounds" />
          </mxGeometry>
        </mxCell>
        <mxCell id="ArWsetm-JMK3BT-e9hQn-91" value="Бронирование необходимой книги" style="shape=partialRectangle;connectable=0;fillColor=none;top=0;left=0;bottom=0;right=0;align=left;spacingLeft=6;overflow=hidden;html=1;whiteSpace=wrap;" vertex="1" parent="ArWsetm-JMK3BT-e9hQn-89">
          <mxGeometry x="120" width="280" height="30" as="geometry">
            <mxRectangle width="280" height="30" as="alternateBounds" />
          </mxGeometry>
        </mxCell>
        <mxCell id="ArWsetm-JMK3BT-e9hQn-93" value="" style="shape=tableRow;horizontal=0;startSize=0;swimlaneHead=0;swimlaneBody=0;fillColor=none;collapsible=0;dropTarget=0;points=[[0,0.5],[1,0.5]];portConstraint=eastwest;top=0;left=0;right=0;bottom=0;html=1;" vertex="1" parent="ArWsetm-JMK3BT-e9hQn-26">
          <mxGeometry y="220" width="400" height="30" as="geometry" />
        </mxCell>
        <mxCell id="ArWsetm-JMK3BT-e9hQn-94" value="Тип" style="shape=partialRectangle;connectable=0;fillColor=none;top=0;left=0;bottom=0;right=0;editable=1;overflow=hidden;html=1;whiteSpace=wrap;" vertex="1" parent="ArWsetm-JMK3BT-e9hQn-93">
          <mxGeometry width="120" height="30" as="geometry">
            <mxRectangle width="120" height="30" as="alternateBounds" />
          </mxGeometry>
        </mxCell>
        <mxCell id="ArWsetm-JMK3BT-e9hQn-95" value="Базовый" style="shape=partialRectangle;connectable=0;fillColor=none;top=0;left=0;bottom=0;right=0;align=left;spacingLeft=6;overflow=hidden;html=1;whiteSpace=wrap;" vertex="1" parent="ArWsetm-JMK3BT-e9hQn-93">
          <mxGeometry x="120" width="280" height="30" as="geometry">
            <mxRectangle width="280" height="30" as="alternateBounds" />
          </mxGeometry>
        </mxCell>
        <mxCell id="ArWsetm-JMK3BT-e9hQn-96" value="" style="shape=tableRow;horizontal=0;startSize=0;swimlaneHead=0;swimlaneBody=0;fillColor=none;collapsible=0;dropTarget=0;points=[[0,0.5],[1,0.5]];portConstraint=eastwest;top=0;left=0;right=0;bottom=0;html=1;" vertex="1" parent="ArWsetm-JMK3BT-e9hQn-26">
          <mxGeometry y="250" width="400" height="50" as="geometry" />
        </mxCell>
        <mxCell id="ArWsetm-JMK3BT-e9hQn-97" value="Ссылки на другие варианты&lt;br/&gt;использования" style="shape=partialRectangle;connectable=0;fillColor=none;top=0;left=0;bottom=0;right=0;editable=1;overflow=hidden;html=1;whiteSpace=wrap;" vertex="1" parent="ArWsetm-JMK3BT-e9hQn-96">
          <mxGeometry width="120" height="50" as="geometry">
            <mxRectangle width="120" height="50" as="alternateBounds" />
          </mxGeometry>
        </mxCell>
        <mxCell id="ArWsetm-JMK3BT-e9hQn-98" value="-" style="shape=partialRectangle;connectable=0;fillColor=none;top=0;left=0;bottom=0;right=0;align=left;spacingLeft=6;overflow=hidden;html=1;whiteSpace=wrap;" vertex="1" parent="ArWsetm-JMK3BT-e9hQn-96">
          <mxGeometry x="120" width="280" height="50" as="geometry">
            <mxRectangle width="280" height="50" as="alternateBounds" />
          </mxGeometry>
        </mxCell>
        <mxCell id="ArWsetm-JMK3BT-e9hQn-102" value="Последовательность действий актеров" style="shape=table;startSize=30;container=1;collapsible=1;childLayout=tableLayout;fixedRows=1;rowLines=0;fontStyle=1;align=center;resizeLast=1;html=1;whiteSpace=wrap;" vertex="1" parent="1">
          <mxGeometry x="720" y="400" width="400" height="220" as="geometry" />
        </mxCell>
        <mxCell id="ArWsetm-JMK3BT-e9hQn-103" value="" style="shape=tableRow;horizontal=0;startSize=0;swimlaneHead=0;swimlaneBody=0;fillColor=none;collapsible=0;dropTarget=0;points=[[0,0.5],[1,0.5]];portConstraint=eastwest;top=0;left=0;right=0;bottom=0;html=1;" vertex="1" parent="ArWsetm-JMK3BT-e9hQn-102">
          <mxGeometry y="30" width="400" height="30" as="geometry" />
        </mxCell>
        <mxCell id="ArWsetm-JMK3BT-e9hQn-104" value="Действия актёров" style="shape=partialRectangle;connectable=0;fillColor=none;top=0;left=0;bottom=0;right=0;fontStyle=1;overflow=hidden;html=1;whiteSpace=wrap;" vertex="1" parent="ArWsetm-JMK3BT-e9hQn-103">
          <mxGeometry width="120" height="30" as="geometry">
            <mxRectangle width="120" height="30" as="alternateBounds" />
          </mxGeometry>
        </mxCell>
        <mxCell id="ArWsetm-JMK3BT-e9hQn-105" value="Отклик системы" style="shape=partialRectangle;connectable=0;fillColor=none;top=0;left=0;bottom=0;right=0;align=left;spacingLeft=6;fontStyle=5;overflow=hidden;html=1;whiteSpace=wrap;" vertex="1" parent="ArWsetm-JMK3BT-e9hQn-103">
          <mxGeometry x="120" width="280" height="30" as="geometry">
            <mxRectangle width="280" height="30" as="alternateBounds" />
          </mxGeometry>
        </mxCell>
        <mxCell id="ArWsetm-JMK3BT-e9hQn-106" value="" style="shape=tableRow;horizontal=0;startSize=0;swimlaneHead=0;swimlaneBody=0;fillColor=none;collapsible=0;dropTarget=0;points=[[0,0.5],[1,0.5]];portConstraint=eastwest;top=0;left=0;right=0;bottom=0;html=1;" vertex="1" parent="ArWsetm-JMK3BT-e9hQn-102">
          <mxGeometry y="60" width="400" height="60" as="geometry" />
        </mxCell>
        <mxCell id="ArWsetm-JMK3BT-e9hQn-107" value="1. Пользователь заказывает книгу" style="shape=partialRectangle;connectable=0;fillColor=none;top=0;left=0;bottom=0;right=0;editable=1;overflow=hidden;html=1;whiteSpace=wrap;" vertex="1" parent="ArWsetm-JMK3BT-e9hQn-106">
          <mxGeometry width="120" height="60" as="geometry">
            <mxRectangle width="120" height="60" as="alternateBounds" />
          </mxGeometry>
        </mxCell>
        <mxCell id="ArWsetm-JMK3BT-e9hQn-108" value="2. Система&amp;nbsp;проверяет наличие нужных книг&lt;br&gt;3. Админ подтверждает заказ&lt;br&gt;4. В системе происходит изменение остатка книг" style="shape=partialRectangle;connectable=0;fillColor=none;top=0;left=0;bottom=0;right=0;align=left;spacingLeft=6;overflow=hidden;html=1;whiteSpace=wrap;" vertex="1" parent="ArWsetm-JMK3BT-e9hQn-106">
          <mxGeometry x="120" width="280" height="60" as="geometry">
            <mxRectangle width="280" height="60" as="alternateBounds" />
          </mxGeometry>
        </mxCell>
        <mxCell id="ArWsetm-JMK3BT-e9hQn-109" value="" style="shape=tableRow;horizontal=0;startSize=0;swimlaneHead=0;swimlaneBody=0;fillColor=none;collapsible=0;dropTarget=0;points=[[0,0.5],[1,0.5]];portConstraint=eastwest;top=0;left=0;right=0;bottom=0;html=1;" vertex="1" parent="ArWsetm-JMK3BT-e9hQn-102">
          <mxGeometry y="120" width="400" height="100" as="geometry" />
        </mxCell>
        <mxCell id="ArWsetm-JMK3BT-e9hQn-110" value="5. Админ вводит данные о книгах, выдачах, пользователях" style="shape=partialRectangle;connectable=0;fillColor=none;top=0;left=0;bottom=0;right=0;editable=1;overflow=hidden;html=1;whiteSpace=wrap;" vertex="1" parent="ArWsetm-JMK3BT-e9hQn-109">
          <mxGeometry width="120" height="100" as="geometry">
            <mxRectangle width="120" height="100" as="alternateBounds" />
          </mxGeometry>
        </mxCell>
        <mxCell id="ArWsetm-JMK3BT-e9hQn-111" value="6. В системе происходит изменение остатка книг" style="shape=partialRectangle;connectable=0;fillColor=none;top=0;left=0;bottom=0;right=0;align=left;spacingLeft=6;overflow=hidden;html=1;whiteSpace=wrap;" vertex="1" parent="ArWsetm-JMK3BT-e9hQn-109">
          <mxGeometry x="120" width="280" height="100" as="geometry">
            <mxRectangle width="280" height="100" as="alternateBounds" />
          </mxGeometry>
        </mxCell>
      </root>
    </mxGraphModel>
  </diagram>
</mxfile>
